<?xml version="1.0" encoding="utf-8"?>
<svg xmlns="http://www.w3.org/2000/svg" style="margin: auto; background: rgb(241, 242, 243); display: block; shape-rendering: auto;" width="280" height="250" preserveAspectRatio="xMidYMid">
<style type="text/css">
  text {
    text-anchor: middle; font-size: 50px; opacity: 0;
  }
</style>
<g style="transform-origin:140px 125px;transform:scale(1)">
<g transform="translate(140,125)">
  <g transform="translate(0,0)"><g class="path" style="opacity: 1; transform-origin: -90.65px -3.8212px; animation: 2.43902s linear -1.40854s infinite normal forwards running fade-811f3ee0-dcbd-4fd1-9a4a-06031a6dcb00;"><path d="M1.49-30.00L1.49-35.01L29.49-35.01L29.49-30.00L17.99-30.00L17.99 0L12.99 0L12.99-30.00L1.49-30.00" fill="#222222" stroke="none" stroke-width="none" transform="translate(-106.1400146484375,13.683797912597656)" style="fill: rgb(34, 34, 34);"></path></g><g class="path" style="opacity: 1; transform-origin: -63.135px 0.683798px; animation: 2.43902s linear -1.20732s infinite normal forwards running fade-811f3ee0-dcbd-4fd1-9a4a-06031a6dcb00;"><path d="M32.01-4.81L32.01-11.35L32.01-11.35Q32.01-12.35 32.39-13.22L32.39-13.22L32.39-13.22Q32.76-14.09 33.41-14.75L33.41-14.75L33.41-14.75Q34.06-15.41 34.94-15.78L34.94-15.78L34.94-15.78Q35.82-16.16 36.79-16.16L36.79-16.16L49.19-16.16L49.19-21.19L33.50-21.19L33.50-26.00L49.19-26.00L49.19-26.00Q50.20-26.00 51.07-25.62L51.07-25.62L51.07-25.62Q51.95-25.24 52.60-24.60L52.60-24.60L52.60-24.60Q53.25-23.95 53.63-23.07L53.63-23.07L53.63-23.07Q54.00-22.19 54.00-21.19L54.00-21.19L54.00 0L49.19 0L49.19-4.39L49.19-4.39Q49.12-3.49 48.71-2.69L48.71-2.69L48.71-2.69Q48.29-1.88 47.64-1.28L47.64-1.28L47.64-1.28Q47.00-0.68 46.17-0.34L46.17-0.34L46.17-0.34Q45.34 0 44.41 0L44.41 0L36.79 0L36.79 0Q35.82 0 34.94-0.38L34.94-0.38L34.94-0.38Q34.06-0.76 33.41-1.40L33.41-1.40L33.41-1.40Q32.76-2.05 32.39-2.93L32.39-2.93L32.39-2.93Q32.01-3.81 32.01-4.81L32.01-4.81zM36.79-11.35L36.79-4.81L49.19-4.81L49.19-11.35L36.79-11.35" fill="#222222" stroke="none" stroke-width="none" transform="translate(-106.1400146484375,13.683797912597656)" style="fill: rgb(0, 216, 255);"></path></g><g class="path" style="opacity: 1; transform-origin: -41.735px -4.3212px; animation: 2.43902s linear -1.0061s infinite normal forwards running fade-811f3ee0-dcbd-4fd1-9a4a-06031a6dcb00;"><path d="M62.01-36.01L66.80-36.01L66.80 0L62.01 0L62.01-36.01" fill="#222222" stroke="none" stroke-width="none" transform="translate(-106.1400146484375,13.683797912597656)" style="fill: rgb(34, 34, 34);"></path></g><g class="path" style="opacity: 1; transform-origin: -19.84px 0.683798px; animation: 2.43902s linear -0.804878s infinite normal forwards running fade-811f3ee0-dcbd-4fd1-9a4a-06031a6dcb00;"><path d="M74.80-4.81L74.80-26.00L79.59-26.00L79.59-4.81L92.99-4.81L92.99-26.00L97.80-26.00L97.80 0L92.99 0L92.99-4.39L92.99-4.39Q92.92-3.49 92.50-2.69L92.50-2.69L92.50-2.69Q92.09-1.88 91.44-1.28L91.44-1.28L91.44-1.28Q90.80-0.68 89.97-0.34L89.97-0.34L89.97-0.34Q89.14 0 88.21 0L88.21 0L79.59 0L79.59 0Q78.61 0 77.73-0.38L77.73-0.38L77.73-0.38Q76.86-0.76 76.21-1.40L76.21-1.40L76.21-1.40Q75.56-2.05 75.18-2.93L75.18-2.93L75.18-2.93Q74.80-3.81 74.80-4.81L74.80-4.81" fill="#222222" stroke="none" stroke-width="none" transform="translate(-106.1400146484375,13.683797912597656)" style="fill: rgb(0, 216, 255);"></path></g><g class="path" style="opacity: 1; transform-origin: 11.645px -4.3212px; animation: 2.43902s linear -0.603659s infinite normal forwards running fade-811f3ee0-dcbd-4fd1-9a4a-06031a6dcb00;"><path d="M129.76 0L123.00 0L110.60-11.11L110.60 0L105.81 0L105.81-36.01L110.60-36.01L110.60-15.75L122.00-26.00L128.76-26.00L114.79-13.45L129.76 0" fill="#222222" stroke="none" stroke-width="none" transform="translate(-106.1400146484375,13.683797912597656)" style="fill: rgb(34, 34, 34);"></path></g><g class="path" style="opacity: 1; transform-origin: 38.61px -4.3212px; animation: 2.43902s linear -0.402439s infinite normal forwards running fade-811f3ee0-dcbd-4fd1-9a4a-06031a6dcb00;"><path d="M133.25-4.81L133.25-21.19L133.25-21.19Q133.25-22.19 133.63-23.07L133.63-23.07L133.63-23.07Q134.01-23.95 134.66-24.60L134.66-24.60L134.66-24.60Q135.30-25.24 136.18-25.62L136.18-25.62L136.18-25.62Q137.06-26.00 138.04-26.00L138.04-26.00L151.44-26.00L151.44-36.01L156.25-36.01L156.25 0L151.44 0L151.44-4.39L151.44-4.39Q151.37-3.49 150.95-2.69L150.95-2.69L150.95-2.69Q150.54-1.88 149.89-1.28L149.89-1.28L149.89-1.28Q149.24-0.68 148.41-0.34L148.41-0.34L148.41-0.34Q147.58 0 146.66 0L146.66 0L138.04 0L138.04 0Q137.06 0 136.18-0.38L136.18-0.38L136.18-0.38Q135.30-0.76 134.66-1.40L134.66-1.40L134.66-1.40Q134.01-2.05 133.63-2.93L133.63-2.93L133.63-2.93Q133.25-3.81 133.25-4.81L133.25-4.81zM138.04-21.19L138.04-4.81L151.44-4.81L151.44-21.19L138.04-21.19" fill="#222222" stroke="none" stroke-width="none" transform="translate(-106.1400146484375,13.683797912597656)" style="fill: rgb(0, 216, 255);"></path></g><g class="path" style="opacity: 1; transform-origin: 69.115px 0.683798px; animation: 2.43902s linear -0.20122s infinite normal forwards running fade-811f3ee0-dcbd-4fd1-9a4a-06031a6dcb00;"><path d="M186.25-21.19L186.25-10.55L169.04-10.55L169.04-4.81L186.25-4.81L186.25 0L169.04 0L169.04 0Q168.07 0 167.19-0.38L167.19-0.38L167.19-0.38Q166.31-0.76 165.66-1.40L165.66-1.40L165.66-1.40Q165.01-2.05 164.64-2.93L164.64-2.93L164.64-2.93Q164.26-3.81 164.26-4.81L164.26-4.81L164.26-21.19L164.26-21.19Q164.26-22.19 164.64-23.07L164.64-23.07L164.64-23.07Q165.01-23.95 165.66-24.60L165.66-24.60L165.66-24.60Q166.31-25.24 167.19-25.62L167.19-25.62L167.19-25.62Q168.07-26.00 169.04-26.00L169.04-26.00L181.45-26.00L181.45-26.00Q182.45-26.00 183.33-25.62L183.33-25.62L183.33-25.62Q184.20-25.24 184.85-24.60L184.85-24.60L184.85-24.60Q185.50-23.95 185.88-23.07L185.88-23.07L185.88-23.07Q186.25-22.19 186.25-21.19L186.25-21.19zM181.45-21.19L169.04-21.19L169.04-15.36L181.45-15.36L181.45-21.19" fill="#222222" stroke="none" stroke-width="none" transform="translate(-106.1400146484375,13.683797912597656)" style="fill: rgb(34, 34, 34);"></path></g><g class="path" style="opacity: 1; transform-origin: 97.875px 0.683798px; animation: 2.43902s linear 0s infinite normal forwards running fade-811f3ee0-dcbd-4fd1-9a4a-06031a6dcb00;"><path d="M208.96-21.19L199.05-21.19L199.05 0L194.26 0L194.26-26.00L199.05-26.00L199.05-21.41L199.05-21.41Q199.10-22.36 199.49-23.21L199.49-23.21L199.49-23.21Q199.88-24.05 200.52-24.67L200.52-24.67L200.52-24.67Q201.17-25.29 202.03-25.65L202.03-25.65L202.03-25.65Q202.88-26.00 203.86-26.00L203.86-26.00L208.96-26.00L208.96-26.00Q209.96-26.00 210.83-25.62L210.83-25.62L210.83-25.62Q211.69-25.24 212.35-24.60L212.35-24.60L212.35-24.60Q213.01-23.95 213.39-23.07L213.39-23.07L213.39-23.07Q213.77-22.19 213.77-21.19L213.77-21.19L213.77-16.80L208.96-16.80L208.96-21.19" fill="#222222" stroke="none" stroke-width="none" transform="translate(-106.1400146484375,13.683797912597656)" style="fill: rgb(0, 216, 255);"></path></g></g>
</g>
</g>
<style id="fade-811f3ee0-dcbd-4fd1-9a4a-06031a6dcb00" data-anikit="">@keyframes fade-811f3ee0-dcbd-4fd1-9a4a-06031a6dcb00
{
  0% {
    animation-timing-function: cubic-bezier(0.2057,0.573,0.3723,0.9184);
    opacity: 1;
  }
  100% {
    opacity: 0;
  }
}</style></svg>